<svg width="1706" height="361" viewBox="0 0 1706 361" fill="none" xmlns="http://www.w3.org/2000/svg">
<g clip-path="url(#clip0_229_131)">
<path d="M233.641 86.5673C233.643 85.9047 233.363 85.2702 233.239 84.5973C232.915 82.6082 234.383 80.8401 235.918 79.5107C240.415 75.5905 246.426 73.4494 252.398 73.6761C253.188 73.6888 253.948 73.75 254.709 73.48C255.421 73.1805 256.018 72.4129 255.797 71.6812C255.643 71.057 255.011 70.6746 254.477 70.3511C252.318 68.9788 250.532 67.1012 249.283 64.8845C248.857 64.1618 248.49 63.3419 248.405 62.4938C248.253 61.5382 248.51 60.5647 248.738 59.6398C249.863 55.8045 252.115 52.8504 255.077 50.2595C256.338 49.163 257.171 48.0065 255.089 46.9463C253.961 46.3965 252.848 46.9186 251.688 47.0799C247.739 47.6792 243.59 46.9623 239.615 46.9476C235.151 46.97 230.668 47.2458 226.319 48.0678C223.315 48.6413 219.959 49.7983 218.886 52.6691C218.069 54.8976 218.917 57.3369 219.835 59.5524C222.297 65.691 224.73 71.8782 227.192 78.0167C228.418 81.1494 229.693 84.3114 231.553 87.1637C231.805 87.5155 232.076 87.9453 232.505 88.0053C233.041 87.9976 233.638 87.2299 233.641 86.5673Z" fill="#19170F"/>
<path d="M251.944 141.471C253.202 137.76 254.981 134.492 258.06 131.944C258.774 131.337 259.613 130.749 260.551 130.512C261.364 130.255 262.262 130.269 263.095 130.375C265.624 130.648 268.054 131.548 270.167 132.989C270.676 133.352 271.276 133.782 271.911 133.677C272.67 133.592 273.14 132.74 273.134 131.967C273.128 131.194 272.725 130.487 272.402 129.767C269.915 124.356 269.51 117.988 271.257 112.322C271.84 110.433 272.964 108.373 274.873 107.852C275.541 107.701 276.234 107.708 276.842 107.444C277.45 107.18 277.966 106.361 277.589 105.813C277.365 105.443 276.896 105.317 276.44 105.27C273.132 104.72 269.723 104.797 266.315 104.874C259.703 105.035 253.058 105.242 246.446 105.403C244.094 105.467 241.472 105.618 239.747 107.248C237.532 109.367 237.794 112.907 238.453 115.893C239.461 120.247 240.931 124.442 242.672 128.552C244.255 132.199 246.518 135.774 247.559 139.593C247.869 140.722 247.829 141.951 248.779 142.771C250.701 144.284 251.468 143.017 251.944 141.471Z" fill="#19170F"/>
</g>
<g clip-path="url(#clip1_229_131)">
<path d="M322.805 125.226C322.955 124.581 322.823 123.9 322.851 123.216C322.978 121.205 324.803 119.808 326.595 118.853C331.852 116.032 338.188 115.282 343.961 116.832C344.728 117.02 345.455 117.249 346.257 117.155C347.018 117.022 347.771 116.406 347.718 115.644C347.707 115.001 347.176 114.487 346.727 114.053C344.928 112.235 343.605 110.007 342.88 107.568C342.626 106.769 342.45 105.887 342.556 105.042C342.62 104.076 343.088 103.184 343.515 102.333C345.466 98.8445 348.319 96.4656 351.783 94.5989C353.257 93.8105 354.326 92.8682 352.532 91.3715C351.555 90.5843 350.354 90.8457 349.186 90.7448C345.203 90.4504 341.318 88.8283 337.445 87.9292C333.089 86.958 328.656 86.2291 324.233 86.0627C321.178 85.9535 317.648 86.3346 315.963 88.8947C314.671 90.8855 314.955 93.4525 315.357 95.8166C316.391 102.349 317.386 108.923 318.421 115.455C318.919 118.782 319.458 122.148 320.637 125.343C320.804 125.742 320.973 126.222 321.378 126.376C321.902 126.487 322.655 125.872 322.805 125.226Z" fill="#19170F"/>
<path d="M328.432 182.827C330.484 179.488 332.945 176.698 336.515 174.899C337.346 174.466 338.295 174.08 339.262 174.058C340.112 173.988 340.984 174.201 341.772 174.49C344.178 175.318 346.347 176.737 348.086 178.612C348.5 179.079 348.991 179.632 349.632 179.671C350.392 179.756 351.039 179.031 351.205 178.276C351.371 177.521 351.136 176.742 350.981 175.968C349.761 170.139 350.783 163.841 353.747 158.705C354.736 156.994 356.29 155.235 358.267 155.153C358.952 155.153 359.626 155.315 360.277 155.193C360.929 155.071 361.614 154.387 361.369 153.769C361.233 153.358 360.804 153.131 360.37 152.984C357.266 151.711 353.926 151.028 350.586 150.345C344.104 149.03 337.579 147.753 331.097 146.439C328.79 145.979 326.2 145.542 324.156 146.747C321.526 148.32 320.993 151.83 320.971 154.888C320.984 159.357 321.484 163.774 322.267 168.168C322.999 172.076 324.41 176.065 324.575 180.019C324.626 181.19 324.313 182.378 325.058 183.389C326.594 185.293 327.624 184.227 328.432 182.827Z" fill="#19170F"/>
</g>
<g clip-path="url(#clip2_229_131)">
<path d="M402.651 189.832C402.641 189.169 402.349 188.54 402.213 187.87C401.852 185.887 403.287 184.092 404.797 182.734C409.221 178.732 415.191 176.479 421.167 176.596C421.956 176.594 422.717 176.641 423.473 176.357C424.18 176.044 424.763 175.265 424.528 174.538C424.363 173.917 423.724 173.546 423.183 173.233C421 171.901 419.179 170.056 417.889 167.863C417.45 167.148 417.068 166.335 416.967 165.489C416.797 164.537 417.036 163.558 417.247 162.629C418.3 158.774 420.498 155.779 423.411 153.133C424.652 152.014 425.463 150.842 423.362 149.82C422.224 149.292 421.121 149.834 419.964 150.017C416.027 150.689 411.866 150.049 407.89 150.108C403.428 150.214 398.95 150.572 394.617 151.475C391.625 152.104 388.29 153.323 387.271 156.213C386.495 158.456 387.389 160.879 388.347 163.077C390.923 169.169 393.47 175.31 396.045 181.402C397.329 184.512 398.662 187.65 400.575 190.467C400.833 190.814 401.113 191.239 401.542 191.291C402.078 191.273 402.661 190.495 402.651 189.832Z" fill="#19170F"/>
<path d="M421.969 244.388C423.157 240.654 424.875 237.353 427.907 234.748C428.61 234.128 429.438 233.525 430.371 233.271C431.179 232.999 432.078 232.996 432.912 233.087C435.446 233.312 437.892 234.167 440.031 235.569C440.546 235.923 441.155 236.342 441.787 236.225C442.545 236.125 442.999 235.265 442.978 234.492C442.958 233.72 442.542 233.02 442.206 232.306C439.619 226.942 439.096 220.583 440.738 214.885C441.286 212.986 442.372 210.905 444.271 210.349C444.935 210.186 445.629 210.18 446.232 209.905C446.835 209.63 447.335 208.802 446.949 208.26C446.718 207.894 446.247 207.777 445.79 207.739C442.472 207.25 439.065 207.39 435.659 207.53C429.051 207.814 422.411 208.144 415.803 208.427C413.453 208.535 410.834 208.734 409.139 210.396C406.965 212.555 407.292 216.091 408.006 219.064C409.094 223.398 410.642 227.565 412.459 231.642C414.109 235.259 416.438 238.792 417.55 242.59C417.88 243.714 417.863 244.943 418.828 245.745C420.777 247.223 421.521 245.941 421.969 244.388Z" fill="#19170F"/>
</g>
<g clip-path="url(#clip3_229_131)">
<path d="M495.888 236.366C495.893 235.703 495.614 235.068 495.492 234.395C495.173 232.405 496.646 230.641 498.185 229.315C502.693 225.408 508.709 223.283 514.681 223.526C515.471 223.541 516.23 223.604 516.992 223.336C517.705 223.039 518.305 222.273 518.085 221.54C517.933 220.916 517.302 220.532 516.769 220.207C514.614 218.828 512.833 216.946 511.59 214.726C511.166 214.002 510.801 213.181 510.719 212.333C510.569 211.377 510.829 210.404 511.059 209.48C512.194 205.647 514.455 202.7 517.424 200.117C518.688 199.024 519.524 197.869 517.445 196.804C516.318 196.251 515.204 196.77 514.044 196.928C510.093 197.516 505.946 196.788 501.971 196.763C497.507 196.773 493.023 197.036 488.672 197.846C485.667 198.412 482.307 199.56 481.226 202.427C480.403 204.654 481.245 207.095 482.156 209.313C484.602 215.459 487.018 221.652 489.463 227.798C490.681 230.934 491.947 234.099 493.799 236.957C494.05 237.309 494.32 237.739 494.749 237.801C495.285 237.794 495.884 237.028 495.888 236.366Z" fill="#19170F"/>
<path d="M514.042 291.32C515.309 287.612 517.097 284.348 520.184 281.809C520.899 281.204 521.74 280.619 522.679 280.384C523.492 280.129 524.39 280.146 525.222 280.254C527.751 280.533 530.179 281.44 532.288 282.887C532.795 283.252 533.395 283.683 534.029 283.58C534.789 283.497 535.261 282.646 535.257 281.873C535.253 281.1 534.852 280.392 534.531 279.671C532.059 274.253 531.671 267.884 533.434 262.223C534.022 260.336 535.152 258.279 537.062 257.763C537.73 257.614 538.424 257.623 539.032 257.36C539.641 257.098 540.159 256.281 539.784 255.731C539.561 255.361 539.092 255.234 538.637 255.186C535.329 254.626 531.921 254.694 528.512 254.762C521.9 254.905 515.254 255.094 508.642 255.236C506.29 255.294 503.667 255.437 501.938 257.063C499.718 259.176 499.97 262.717 500.62 265.705C501.616 270.061 503.075 274.261 504.805 278.375C506.378 282.027 508.631 285.608 509.662 289.429C509.969 290.56 509.925 291.788 510.873 292.61C512.79 294.129 513.561 292.864 514.042 291.32Z" fill="#19170F"/>
</g>
<g clip-path="url(#clip4_229_131)">
<path d="M604.949 269.664C604.781 269.023 604.347 268.482 604.053 267.864C603.228 266.025 604.191 263.938 605.332 262.259C608.668 257.312 613.924 253.695 619.754 252.376C620.52 252.185 621.27 252.049 621.936 251.592C622.547 251.119 622.926 250.223 622.524 249.573C622.215 249.01 621.506 248.803 620.906 248.628C618.467 247.858 616.257 246.504 614.48 244.683C613.882 244.095 613.316 243.397 613.015 242.6C612.622 241.715 612.62 240.709 612.601 239.756C612.701 235.761 614.116 232.326 616.311 229.06C617.247 227.675 617.754 226.343 615.47 225.855C614.238 225.614 613.297 226.405 612.217 226.86C608.556 228.456 604.363 228.832 600.517 229.842C596.21 231.013 591.949 232.434 587.958 234.349C585.204 235.677 582.259 237.659 581.961 240.709C581.746 243.073 583.194 245.212 584.651 247.116C588.611 252.413 592.556 257.765 596.516 263.062C598.507 265.774 600.553 268.501 603.086 270.778C603.42 271.053 603.793 271.398 604.222 271.346C604.738 271.2 605.118 270.305 604.949 269.664Z" fill="#19170F"/>
<path d="M636.776 318.001C637.036 314.091 637.913 310.475 640.232 307.22C640.766 306.45 641.425 305.666 642.271 305.195C642.99 304.737 643.861 304.519 644.693 304.408C647.207 304.019 649.787 304.263 652.2 305.112C652.785 305.332 653.476 305.592 654.062 305.327C654.774 305.049 655.008 304.105 654.803 303.36C654.598 302.615 654.027 302.035 653.529 301.423C649.733 296.834 647.701 290.786 647.93 284.861C648.007 282.886 648.562 280.606 650.273 279.611C650.879 279.293 651.551 279.121 652.07 278.709C652.59 278.298 652.877 277.374 652.372 276.941C652.06 276.641 651.575 276.64 651.122 276.713C647.783 277.033 644.51 277.985 641.236 278.938C634.889 280.796 628.521 282.708 622.174 284.566C619.918 285.234 617.423 286.054 616.176 288.074C614.582 290.692 615.747 294.046 617.153 296.761C619.248 300.708 621.749 304.383 624.49 307.906C626.959 311.022 630.066 313.894 632.056 317.315C632.646 318.327 632.923 319.525 634.053 320.072C636.299 321.04 636.714 319.617 636.776 318.001Z" fill="#19170F"/>
</g>
<g clip-path="url(#clip5_229_131)">
<path d="M720.341 275.009C719.781 274.655 719.094 274.556 718.458 274.305C716.6 273.524 715.88 271.342 715.567 269.336C714.629 263.444 716.001 257.213 719.361 252.269C719.791 251.607 720.246 250.995 720.421 250.207C720.545 249.444 720.211 248.531 719.473 248.33C718.862 248.129 718.203 248.462 717.645 248.744C715.337 249.846 712.798 250.364 710.256 250.247C709.417 250.225 708.528 250.102 707.764 249.724C706.873 249.346 706.184 248.612 705.52 247.928C702.866 244.94 701.556 241.464 700.931 237.579C700.67 235.928 700.131 234.609 698.128 235.811C697.064 236.476 696.916 237.696 696.438 238.766C694.851 242.431 692.043 245.568 689.922 248.931C687.574 252.726 685.429 256.674 683.819 260.797C682.713 263.647 681.913 267.106 683.778 269.538C685.234 271.413 687.752 271.987 690.117 272.384C696.627 273.553 703.162 274.772 709.672 275.941C712.978 276.563 716.335 277.159 719.74 277.095C720.172 277.068 720.68 277.066 720.958 276.734C721.236 276.276 720.902 275.362 720.341 275.009Z" fill="#19170F"/>
<path d="M776.594 288.612C774.115 285.578 772.287 282.336 771.761 278.374C771.625 277.447 771.572 276.424 771.868 275.503C772.082 274.678 772.57 273.923 773.101 273.274C774.674 271.274 776.726 269.691 779.068 268.665C779.646 268.426 780.329 268.145 780.576 267.552C780.907 266.862 780.434 266.012 779.775 265.608C779.117 265.203 778.304 265.169 777.522 265.061C771.615 264.299 766.002 261.266 762.125 256.779C760.833 255.283 759.683 253.238 760.254 251.343C760.48 250.697 760.854 250.113 760.952 249.457C761.051 248.802 760.631 247.931 759.966 247.959C759.533 247.953 759.178 248.283 758.897 248.645C756.675 251.158 754.933 254.089 753.19 257.019C749.82 262.71 746.471 268.453 743.1 274.144C741.908 276.171 740.644 278.474 741.112 280.801C741.733 283.802 744.874 285.458 747.755 286.483C751.98 287.938 756.316 288.917 760.724 289.62C764.655 290.213 768.886 290.19 772.676 291.333C773.798 291.67 774.818 292.355 776.017 291.984C778.319 291.159 777.651 289.836 776.594 288.612Z" fill="#19170F"/>
</g>
<g clip-path="url(#clip6_229_131)">
<path d="M787.1 222.81C786.517 222.494 785.826 222.439 785.175 222.23C783.27 221.572 782.409 219.441 781.967 217.459C780.648 211.641 781.613 205.333 784.645 200.182C785.03 199.494 785.444 198.854 785.567 198.055C785.642 197.286 785.249 196.396 784.5 196.244C783.877 196.084 783.241 196.459 782.703 196.776C780.471 198.026 777.971 198.708 775.427 198.756C774.589 198.789 773.693 198.723 772.906 198.395C771.993 198.076 771.257 197.389 770.551 196.75C767.708 193.94 766.175 190.557 765.298 186.72C764.931 185.09 764.308 183.808 762.387 185.138C761.368 185.871 761.3 187.098 760.892 188.196C759.547 191.957 756.949 195.27 755.05 198.763C752.954 202.703 751.07 206.782 749.732 211C748.812 213.917 748.239 217.421 750.258 219.726C751.833 221.502 754.383 221.912 756.769 222.155C763.341 222.898 769.942 223.69 776.514 224.433C779.853 224.839 783.241 225.216 786.635 224.931C787.064 224.876 787.571 224.841 787.827 224.492C788.075 224.016 787.682 223.126 787.1 222.81Z" fill="#19170F"/>
<path d="M844.118 232.73C841.446 229.863 839.412 226.747 838.63 222.828C838.433 221.911 838.314 220.894 838.55 219.955C838.709 219.118 839.147 218.334 839.636 217.651C841.075 215.553 843.02 213.841 845.29 212.664C845.852 212.389 846.515 212.064 846.723 211.455C847.008 210.746 846.481 209.929 845.797 209.568C845.114 209.207 844.301 209.226 843.514 209.169C837.57 208.792 831.771 206.129 827.611 201.904C826.225 200.495 824.944 198.529 825.391 196.601C825.574 195.942 825.909 195.334 825.965 194.674C826.021 194.014 825.545 193.172 824.884 193.243C824.451 193.265 824.118 193.618 823.861 193.997C821.808 196.649 820.259 199.687 818.711 202.724C815.717 208.622 812.748 214.57 809.755 220.468C808.696 222.569 807.585 224.949 808.203 227.241C809.018 230.195 812.26 231.643 815.201 232.479C819.512 233.657 823.903 234.351 828.346 234.767C832.308 235.103 836.529 234.806 840.384 235.7C841.526 235.963 842.588 236.581 843.761 236.133C846.005 235.159 845.252 233.883 844.118 232.73Z" fill="#19170F"/>
</g>
<g clip-path="url(#clip7_229_131)">
<path d="M871.634 158.645C871.001 158.451 870.312 158.536 869.632 158.46C867.635 158.193 866.368 156.276 865.54 154.422C863.09 148.982 862.782 142.609 864.729 136.958C864.97 136.206 865.249 135.496 865.211 134.69C865.13 133.921 864.569 133.127 863.804 133.127C863.162 133.093 862.613 133.587 862.149 134.006C860.21 135.674 857.896 136.839 855.412 137.393C854.597 137.591 853.706 137.705 852.87 137.541C851.911 137.41 851.054 136.882 850.234 136.396C846.889 134.208 844.714 131.197 843.092 127.611C842.408 126.086 841.542 124.955 839.925 126.64C839.072 127.56 839.249 128.777 839.067 129.934C838.497 133.887 836.609 137.65 835.444 141.451C834.172 145.73 833.138 150.101 832.664 154.502C832.343 157.543 832.479 161.09 834.916 162.949C836.812 164.376 839.392 164.271 841.779 164.034C848.367 163.456 854.994 162.919 861.583 162.341C864.936 162.075 868.332 161.771 871.601 160.816C872.01 160.677 872.5 160.542 872.682 160.149C872.83 159.634 872.268 158.84 871.634 158.645Z" fill="#19170F"/>
<path d="M929.487 157.03C926.299 154.752 923.686 152.102 922.139 148.417C921.765 147.558 921.446 146.584 921.491 145.618C921.48 144.765 921.753 143.909 922.096 143.144C923.09 140.801 924.655 138.736 926.646 137.131C927.142 136.75 927.727 136.3 927.81 135.662C927.948 134.91 927.269 134.214 926.528 133.996C925.786 133.778 924.993 133.959 924.21 134.059C918.31 134.872 912.098 133.415 907.181 130.102C905.542 128.997 903.896 127.324 903.951 125.346C903.999 124.663 904.206 124.002 904.13 123.343C904.054 122.685 903.419 121.954 902.785 122.156C902.366 122.263 902.11 122.675 901.933 123.098C900.448 126.106 899.535 129.39 898.621 132.675C896.86 139.05 895.133 145.47 893.372 151.845C892.753 154.115 892.137 156.668 893.197 158.792C894.584 161.525 898.049 162.3 901.098 162.534C905.556 162.831 909.998 162.639 914.436 162.163C918.385 161.704 922.462 160.573 926.419 160.683C927.59 160.714 928.754 161.108 929.814 160.436C931.819 159.035 930.828 157.934 929.487 157.03Z" fill="#19170F"/>
</g>
<g clip-path="url(#clip8_229_131)">
<path d="M941.727 97.0849C941.173 96.7201 940.489 96.6073 939.858 96.3429C938.016 95.525 937.34 93.3284 937.068 91.3162C936.249 85.4067 937.748 79.2046 941.208 74.3305C941.65 73.6769 942.117 73.0746 942.308 72.2898C942.448 71.5297 942.132 70.6096 941.399 70.3944C940.792 70.1812 940.126 70.5007 939.563 70.7711C937.233 71.826 934.684 72.2927 932.145 72.1243C931.307 72.0853 930.42 71.9438 929.664 71.5502C928.781 71.1546 928.107 70.4066 927.457 69.7099C924.864 66.6687 923.625 63.1668 923.078 59.2694C922.851 57.6138 922.339 56.2839 920.312 57.4454C919.234 58.0886 919.062 59.3057 918.562 60.365C916.902 63.9976 914.03 67.0768 911.842 70.3959C909.417 74.1432 907.193 78.0462 905.5 82.1358C904.336 84.9633 903.467 88.4055 905.282 90.8748C906.699 92.7786 909.205 93.4039 911.561 93.8489C918.046 95.149 924.556 96.5003 931.041 97.8004C934.333 98.4894 937.677 99.1538 941.083 99.1584C941.515 99.14 942.023 99.1483 942.308 98.8226C942.595 98.3698 942.28 97.4497 941.727 97.0849Z" fill="#19170F"/>
<path d="M997.692 111.825C995.275 108.741 993.513 105.463 993.067 101.491C992.95 100.561 992.918 99.5376 993.233 98.6227C993.463 97.8019 993.966 97.0577 994.511 96.4195C996.124 94.4517 998.207 92.9107 1000.57 91.9317C1001.15 91.7054 1001.84 91.4378 1002.1 90.8495C1002.44 90.167 1001.99 89.3078 1001.34 88.8898C1000.69 88.4719 999.877 88.4216 999.097 88.2978C993.207 87.4163 987.656 84.2695 983.871 79.7051C982.61 78.1837 981.501 76.1151 982.111 74.2323C982.349 73.591 982.735 73.0145 982.847 72.3614C982.959 71.7083 982.556 70.8285 981.891 70.843C981.459 70.8281 981.097 71.1517 980.808 71.5076C978.536 73.9753 976.735 76.8697 974.933 79.7642C971.448 85.3854 967.984 91.0596 964.498 96.6808C963.265 98.684 961.955 100.961 962.375 103.297C962.936 106.31 966.042 108.029 968.902 109.113C973.097 110.653 977.412 111.719 981.805 112.512C985.723 113.184 989.954 113.247 993.72 114.466C994.834 114.825 995.84 115.532 997.047 115.185C999.365 114.406 998.724 113.07 997.692 111.825Z" fill="#19170F"/>
</g>
<g clip-path="url(#clip9_229_131)">
<path d="M1038.72 69.6387C1038.59 68.9891 1038.19 68.4243 1037.93 67.7903C1037.21 65.9074 1038.29 63.8795 1039.53 62.2678C1043.14 57.5211 1048.6 54.2116 1054.49 53.229C1055.27 53.0822 1056.03 52.989 1056.72 52.571C1057.35 52.1339 1057.78 51.2616 1057.42 50.5896C1057.14 50.0092 1056.45 49.7622 1055.86 49.5531C1053.47 48.6444 1051.34 47.1656 1049.67 45.2464C1049.11 44.6245 1048.58 43.8955 1048.33 43.0819C1047.99 42.1767 1048.04 41.1714 1048.08 40.2196C1048.41 36.2362 1050.02 32.8885 1052.39 29.7534C1053.41 28.4251 1053.99 27.1244 1051.74 26.5058C1050.52 26.1948 1049.54 26.9307 1048.43 27.3227C1044.69 28.7062 1040.48 28.8408 1036.58 29.6283C1032.22 30.5505 1027.88 31.725 1023.79 33.4073C1020.96 34.5749 1017.9 36.3851 1017.43 39.4132C1017.08 41.7607 1018.41 43.9788 1019.75 45.9636C1023.4 51.4794 1027.03 57.0488 1030.68 62.5645C1032.51 65.3855 1034.4 68.2254 1036.8 70.6439C1037.12 70.9376 1037.47 71.3038 1037.9 71.2762C1038.42 71.1605 1038.85 70.2882 1038.72 69.6387Z" fill="#19170F"/>
<path d="M1067.72 119.723C1068.21 115.834 1069.29 112.274 1071.79 109.157C1072.37 108.419 1073.07 107.674 1073.94 107.253C1074.69 106.837 1075.57 106.669 1076.41 106.605C1078.94 106.362 1081.5 106.753 1083.86 107.739C1084.43 107.992 1085.11 108.292 1085.71 108.061C1086.43 107.824 1086.72 106.895 1086.56 106.14C1086.4 105.384 1085.86 104.773 1085.4 104.132C1081.87 99.3338 1080.19 93.1786 1080.76 87.2764C1080.95 85.309 1081.63 83.0644 1083.4 82.1695C1084.02 81.8865 1084.7 81.7535 1085.25 81.3725C1085.79 80.9915 1086.13 80.0856 1085.65 79.6243C1085.35 79.3071 1084.87 79.2784 1084.41 79.3248C1081.06 79.4531 1077.74 80.216 1074.42 80.979C1067.97 82.4701 1061.51 84.0132 1055.06 85.5044C1052.77 86.0419 1050.23 86.7179 1048.87 88.6628C1047.13 91.1847 1048.1 94.5997 1049.35 97.3915C1051.22 101.452 1053.5 105.265 1056.04 108.939C1058.32 112.192 1061.26 115.237 1063.05 118.767C1063.58 119.811 1063.79 121.022 1064.89 121.633C1067.07 122.729 1067.57 121.332 1067.72 119.723Z" fill="#19170F"/>
</g>
<g clip-path="url(#clip10_229_131)">
<path d="M1145.33 126.491C1145.34 125.828 1145.06 125.191 1144.94 124.517C1144.64 122.525 1146.13 120.772 1147.68 119.458C1152.21 115.584 1158.25 113.505 1164.22 113.793C1165 113.814 1165.76 113.883 1166.53 113.621C1167.24 113.329 1167.85 112.567 1167.63 111.833C1167.49 111.207 1166.86 110.819 1166.33 110.49C1164.18 109.095 1162.42 107.199 1161.19 104.97C1160.77 104.243 1160.41 103.419 1160.34 102.57C1160.19 101.613 1160.46 100.642 1160.7 99.7199C1161.86 95.8964 1164.15 92.9656 1167.13 90.4052C1168.41 89.3217 1169.25 88.1738 1167.18 87.0923C1166.06 86.5309 1164.94 87.0416 1163.78 87.191C1159.82 87.7498 1155.68 86.9903 1151.71 86.9347C1147.24 86.9114 1142.76 87.1411 1138.4 87.9184C1135.39 88.4611 1132.02 89.5836 1130.92 92.4432C1130.08 94.6632 1130.9 97.1111 1131.8 99.3359C1134.2 105.499 1136.57 111.711 1138.97 117.875C1140.16 121.02 1141.4 124.195 1143.23 127.066C1143.48 127.42 1143.75 127.853 1144.18 127.917C1144.71 127.915 1145.32 127.154 1145.33 126.491Z" fill="#19170F"/>
<path d="M1163.07 181.58C1164.36 177.882 1166.17 174.632 1169.28 172.116C1170 171.516 1170.84 170.937 1171.78 170.71C1172.6 170.461 1173.5 170.484 1174.33 170.599C1176.86 170.897 1179.28 171.822 1181.37 173.285C1181.88 173.654 1182.48 174.09 1183.11 173.991C1183.87 173.913 1184.35 173.067 1184.35 172.294C1184.35 171.521 1183.96 170.81 1183.64 170.086C1181.21 164.65 1180.87 158.278 1182.68 152.63C1183.28 150.747 1184.42 148.699 1186.34 148.198C1187.01 148.053 1187.7 148.068 1188.31 147.81C1188.92 147.552 1189.45 146.739 1189.08 146.187C1188.85 145.814 1188.39 145.684 1187.93 145.633C1184.63 145.048 1181.22 145.09 1177.81 145.132C1171.2 145.225 1164.55 145.364 1157.94 145.457C1155.59 145.497 1152.96 145.621 1151.22 147.233C1148.98 149.329 1149.21 152.872 1149.84 155.865C1150.8 160.229 1152.23 164.439 1153.93 168.566C1155.47 172.229 1157.7 175.827 1158.7 179.656C1159 180.789 1158.95 182.017 1159.89 182.847C1161.79 184.38 1162.57 183.121 1163.07 181.58Z" fill="#19170F"/>
</g>
<g clip-path="url(#clip11_229_131)">
<path d="M1228.32 197.043C1228.47 196.396 1228.33 195.716 1228.36 195.033C1228.47 193.02 1230.28 191.61 1232.07 190.643C1237.31 187.784 1243.64 186.989 1249.42 188.497C1250.19 188.68 1250.92 188.904 1251.72 188.804C1252.48 188.665 1253.23 188.044 1253.17 187.282C1253.15 186.639 1252.62 186.13 1252.17 185.698C1250.35 183.893 1249.01 181.675 1248.27 179.241C1248.01 178.444 1247.83 177.564 1247.93 176.717C1247.99 175.751 1248.45 174.856 1248.87 174.002C1250.8 170.499 1253.63 168.1 1257.08 166.209C1258.55 165.41 1259.61 164.46 1257.81 162.976C1256.82 162.196 1255.63 162.466 1254.46 162.373C1250.47 162.107 1246.58 160.513 1242.7 159.642C1238.33 158.702 1233.9 158.005 1229.47 157.87C1226.42 157.783 1222.89 158.189 1221.22 160.761C1219.94 162.761 1220.25 165.326 1220.67 167.687C1221.75 174.212 1222.79 180.778 1223.87 187.303C1224.39 190.627 1224.96 193.989 1226.16 197.175C1226.33 197.573 1226.5 198.051 1226.91 198.202C1227.43 198.31 1228.18 197.689 1228.32 197.043Z" fill="#19170F"/>
<path d="M1234.36 254.602C1236.39 251.249 1238.83 248.44 1242.39 246.616C1243.22 246.177 1244.16 245.785 1245.13 245.755C1245.98 245.679 1246.85 245.886 1247.64 246.169C1250.05 246.981 1252.23 248.383 1253.99 250.246C1254.4 250.711 1254.9 251.26 1255.54 251.294C1256.3 251.374 1256.94 250.644 1257.1 249.888C1257.26 249.132 1257.02 248.354 1256.86 247.582C1255.6 241.761 1256.58 235.456 1259.51 230.3C1260.48 228.581 1262.02 226.811 1264 226.714C1264.68 226.71 1265.36 226.867 1266.01 226.74C1266.66 226.614 1267.34 225.925 1267.09 225.309C1266.95 224.899 1266.52 224.675 1266.09 224.531C1262.97 223.281 1259.63 222.621 1256.28 221.962C1249.79 220.694 1243.26 219.464 1236.77 218.196C1234.46 217.752 1231.86 217.333 1229.83 218.554C1227.21 220.146 1226.7 223.659 1226.7 226.717C1226.75 231.186 1227.28 235.599 1228.09 239.988C1228.85 243.89 1230.29 247.869 1230.49 251.822C1230.55 252.992 1230.24 254.183 1230.99 255.188C1232.54 257.081 1233.57 256.008 1234.36 254.602Z" fill="#19170F"/>
</g>
<g clip-path="url(#clip12_229_131)">
<path d="M1306.9 252.993C1306.96 252.333 1306.73 251.676 1306.67 250.995C1306.52 248.986 1308.13 247.351 1309.78 246.16C1314.6 242.645 1320.77 241.033 1326.7 241.777C1327.49 241.858 1328.24 241.985 1329.02 241.782C1329.76 241.545 1330.42 240.832 1330.26 240.084C1330.16 239.449 1329.57 239.013 1329.06 238.644C1327.03 237.09 1325.41 235.065 1324.36 232.748C1324 231.991 1323.7 231.143 1323.69 230.29C1323.62 229.325 1323.97 228.378 1324.27 227.476C1325.73 223.753 1328.23 221.005 1331.4 218.681C1332.75 217.698 1333.68 216.618 1331.7 215.381C1330.62 214.735 1329.47 215.159 1328.3 215.219C1324.31 215.474 1320.24 214.4 1316.28 214.04C1311.84 213.676 1307.35 213.562 1302.94 214.003C1299.9 214.314 1296.46 215.176 1295.14 217.943C1294.13 220.092 1294.76 222.596 1295.49 224.882C1297.41 231.211 1299.29 237.586 1301.21 243.915C1302.16 247.142 1303.16 250.403 1304.77 253.406C1304.99 253.778 1305.22 254.23 1305.64 254.327C1306.18 254.366 1306.84 253.653 1306.9 252.993Z" fill="#19170F"/>
<path d="M1320.37 309.277C1321.94 305.689 1324 302.587 1327.29 300.316C1328.05 299.773 1328.94 299.261 1329.9 299.106C1330.73 298.92 1331.62 299.012 1332.44 299.19C1334.94 299.681 1337.28 300.788 1339.26 302.407C1339.74 302.814 1340.3 303.294 1340.94 303.244C1341.7 303.225 1342.24 302.417 1342.3 301.646C1342.37 300.876 1342.03 300.137 1341.77 299.391C1339.76 293.785 1339.91 287.406 1342.14 281.912C1342.88 280.081 1344.18 278.126 1346.13 277.773C1346.81 277.68 1347.5 277.747 1348.13 277.537C1348.75 277.327 1349.34 276.556 1349.01 275.977C1348.82 275.589 1348.36 275.423 1347.91 275.337C1344.66 274.502 1341.26 274.283 1337.86 274.064C1331.26 273.651 1324.62 273.281 1318.02 272.868C1315.67 272.728 1313.05 272.65 1311.19 274.125C1308.8 276.044 1308.75 279.594 1309.15 282.626C1309.77 287.05 1310.88 291.357 1312.25 295.603C1313.51 299.373 1315.46 303.131 1316.17 307.026C1316.38 308.178 1316.23 309.398 1317.1 310.297C1318.89 311.972 1319.76 310.776 1320.37 309.277Z" fill="#19170F"/>
</g>
<g clip-path="url(#clip13_229_131)">
<path d="M1635.39 200.75C1634.77 200.514 1634.08 200.552 1633.4 200.43C1631.43 200.03 1630.29 198.032 1629.59 196.126C1627.51 190.534 1627.64 184.155 1629.96 178.647C1630.25 177.913 1630.57 177.224 1630.59 176.417C1630.56 175.644 1630.06 174.814 1629.29 174.763C1628.65 174.686 1628.07 175.142 1627.58 175.528C1625.54 177.062 1623.15 178.07 1620.63 178.455C1619.81 178.598 1618.91 178.652 1618.09 178.431C1617.14 178.236 1616.32 177.652 1615.53 177.112C1612.34 174.705 1610.38 171.554 1609 167.867C1608.42 166.3 1607.63 165.112 1605.9 166.685C1604.99 167.546 1605.09 168.772 1604.83 169.914C1603.99 173.82 1601.85 177.448 1600.44 181.162C1598.88 185.345 1597.55 189.637 1596.79 193.996C1596.26 197.009 1596.16 200.557 1598.46 202.575C1600.26 204.127 1602.84 204.195 1605.24 204.12C1611.85 203.985 1618.5 203.896 1625.11 203.761C1628.48 203.721 1631.88 203.646 1635.21 202.914C1635.63 202.802 1636.13 202.7 1636.33 202.321C1636.52 201.816 1636.01 200.986 1635.39 200.75Z" fill="#19170F"/>
<path d="M1693.22 203.028C1690.19 200.54 1687.76 197.721 1686.47 193.939C1686.15 193.057 1685.9 192.064 1686.01 191.103C1686.05 190.252 1686.39 189.417 1686.78 188.676C1687.93 186.405 1689.63 184.45 1691.72 182.983C1692.24 182.636 1692.86 182.225 1692.98 181.595C1693.17 180.854 1692.54 180.114 1691.81 179.847C1691.09 179.579 1690.29 179.706 1689.5 179.754C1683.56 180.168 1677.46 178.297 1672.77 174.66C1671.21 173.448 1669.68 171.668 1669.87 169.698C1669.96 169.02 1670.22 168.374 1670.18 167.712C1670.15 167.05 1669.57 166.279 1668.92 166.437C1668.5 166.516 1668.21 166.91 1668.01 167.32C1666.32 170.221 1665.19 173.437 1664.06 176.652C1661.87 182.895 1659.72 189.184 1657.53 195.427C1656.76 197.649 1655.98 200.156 1656.89 202.345C1658.09 205.165 1661.5 206.172 1664.52 206.611C1668.95 207.206 1673.4 207.313 1677.86 207.136C1681.83 206.944 1685.97 206.09 1689.91 206.466C1691.08 206.575 1692.21 207.047 1693.32 206.447C1695.41 205.185 1694.5 204.019 1693.22 203.028Z" fill="#19170F"/>
</g>
<g clip-path="url(#clip14_229_131)">
<path d="M1490.28 295.753C1489.78 295.326 1489.11 295.134 1488.51 294.798C1486.78 293.77 1486.37 291.509 1486.33 289.479C1486.21 283.514 1488.43 277.53 1492.43 273.095C1492.95 272.497 1493.48 271.954 1493.76 271.197C1493.99 270.458 1493.79 269.507 1493.08 269.208C1492.5 268.925 1491.81 269.165 1491.21 269.367C1488.78 270.142 1486.19 270.307 1483.69 269.843C1482.86 269.706 1482 269.462 1481.29 268.982C1480.46 268.486 1479.88 267.664 1479.32 266.896C1477.1 263.573 1476.28 259.95 1476.19 256.015C1476.16 254.344 1475.8 252.964 1473.66 253.88C1472.51 254.393 1472.2 255.581 1471.58 256.575C1469.5 259.988 1466.29 262.71 1463.73 265.75C1460.88 269.188 1458.22 272.804 1456.06 276.667C1454.57 279.339 1453.3 282.656 1454.82 285.32C1456 287.377 1458.42 288.291 1460.7 289.009C1466.99 291.059 1473.3 293.163 1479.59 295.213C1482.78 296.283 1486.02 297.334 1489.4 297.737C1489.83 297.77 1490.34 297.837 1490.66 297.547C1491 297.131 1490.79 296.18 1490.28 295.753Z" fill="#19170F"/>
<path d="M1544.14 316.943C1542.1 313.597 1540.73 310.135 1540.76 306.138C1540.75 305.201 1540.84 304.181 1541.26 303.309C1541.58 302.521 1542.17 301.84 1542.78 301.27C1544.61 299.505 1546.86 298.218 1549.33 297.523C1549.93 297.366 1550.65 297.181 1550.97 296.627C1551.39 295.989 1551.04 295.083 1550.45 294.592C1549.85 294.1 1549.05 293.955 1548.29 293.741C1542.54 292.176 1537.4 288.402 1534.17 283.426C1533.1 281.767 1532.24 279.583 1533.06 277.784C1533.38 277.175 1533.83 276.648 1534.01 276.012C1534.2 275.377 1533.91 274.456 1533.24 274.393C1532.82 274.327 1532.42 274.606 1532.09 274.926C1529.55 277.111 1527.42 279.774 1525.29 282.438C1521.17 287.613 1517.07 292.843 1512.95 298.017C1511.49 299.862 1509.92 301.97 1510.06 304.339C1510.27 307.397 1513.15 309.468 1515.86 310.879C1519.85 312.899 1524.01 314.463 1528.28 315.765C1532.09 316.891 1536.29 317.449 1539.88 319.1C1540.95 319.587 1541.87 320.407 1543.11 320.204C1545.5 319.701 1545.02 318.3 1544.14 316.943Z" fill="#19170F"/>
</g>
<g clip-path="url(#clip15_229_131)">
<path d="M1396.88 308.908C1396.68 308.277 1396.22 307.759 1395.9 307.157C1394.98 305.363 1395.83 303.23 1396.89 301.494C1399.97 296.383 1405.03 292.501 1410.78 290.885C1411.54 290.655 1412.28 290.48 1412.92 289.99C1413.51 289.486 1413.84 288.572 1413.41 287.944C1413.07 287.397 1412.35 287.227 1411.74 287.083C1409.27 286.439 1406.99 285.199 1405.12 283.473C1404.5 282.916 1403.89 282.248 1403.55 281.467C1403.12 280.604 1403.06 279.598 1402.99 278.648C1402.89 274.653 1404.13 271.15 1406.15 267.776C1407.01 266.345 1407.45 264.989 1405.15 264.618C1403.9 264.441 1403 265.279 1401.95 265.789C1398.38 267.571 1394.21 268.161 1390.42 269.366C1386.18 270.757 1381.99 272.394 1378.11 274.511C1375.42 275.978 1372.58 278.109 1372.44 281.17C1372.35 283.542 1373.9 285.603 1375.46 287.431C1379.68 292.518 1383.9 297.661 1388.12 302.748C1390.25 305.354 1392.44 307.972 1395.08 310.116C1395.43 310.374 1395.82 310.7 1396.24 310.625C1396.75 310.454 1397.09 309.54 1396.88 308.908Z" fill="#19170F"/>
<path d="M1431.15 355.552C1431.21 351.633 1431.9 347.977 1434.05 344.607C1434.54 343.81 1435.16 342.994 1435.98 342.48C1436.67 341.987 1437.53 341.724 1438.36 341.57C1440.85 341.053 1443.44 341.164 1445.89 341.888C1446.49 342.078 1447.19 342.303 1447.76 342.008C1448.46 341.694 1448.64 340.739 1448.4 340.006C1448.16 339.272 1447.56 338.723 1447.03 338.136C1443 333.748 1440.66 327.812 1440.59 321.883C1440.56 319.906 1441 317.601 1442.66 316.52C1443.25 316.171 1443.91 315.965 1444.41 315.527C1444.9 315.09 1445.14 314.152 1444.62 313.746C1444.29 313.462 1443.81 313.486 1443.36 313.582C1440.04 314.073 1436.82 315.192 1433.6 316.31C1427.36 318.492 1421.09 320.727 1414.85 322.908C1412.63 323.691 1410.18 324.638 1409.04 326.719C1407.58 329.415 1408.92 332.705 1410.46 335.345C1412.76 339.179 1415.44 342.722 1418.36 346.099C1420.98 349.085 1424.24 351.793 1426.4 355.108C1427.04 356.089 1427.38 357.27 1428.53 357.759C1430.83 358.61 1431.17 357.169 1431.15 355.552Z" fill="#19170F"/>
</g>
<g clip-path="url(#clip16_229_131)">
<path d="M145.925 80.7514C145.826 80.0962 145.452 79.5121 145.227 78.8662C144.602 76.95 145.783 74.9781 147.096 73.4296C150.941 68.8676 156.553 65.8323 162.49 65.1428C163.272 65.0346 164.033 64.9789 164.744 64.5956C165.402 64.1907 165.875 63.3408 165.544 62.6516C165.297 62.0582 164.614 61.777 164.036 61.539C161.693 60.513 159.641 58.9307 158.067 56.9311C157.536 56.2821 157.047 55.528 156.834 54.7028C156.537 53.7818 156.642 52.7805 156.726 51.8316C157.251 47.8694 159.025 44.6056 161.556 41.592C162.634 40.3155 163.28 39.0452 161.061 38.316C159.862 37.9451 158.842 38.6313 157.72 38.9683C153.91 40.1645 149.7 40.0906 145.769 40.6842C141.362 41.3891 136.973 42.3474 132.801 43.8249C129.92 44.8512 126.78 46.5079 126.159 49.509C125.692 51.8363 126.904 54.1171 128.15 56.1662C131.522 61.8559 134.873 67.5982 138.245 73.2879C139.935 76.1961 141.679 79.126 143.954 81.6602C144.256 81.9692 144.59 82.3525 145.023 82.3463C145.551 82.2566 146.024 81.4067 145.925 80.7514Z" fill="#19170F"/>
<path d="M172.412 132.21C173.087 128.35 174.345 124.848 176.998 121.859C177.611 121.15 178.35 120.441 179.241 120.063C180.005 119.685 180.895 119.561 181.733 119.539C184.275 119.421 186.814 119.939 189.123 121.04C189.681 121.321 190.34 121.654 190.951 121.453C191.688 121.253 192.022 120.339 191.898 119.576C191.774 118.813 191.268 118.176 190.838 117.514C187.553 112.547 186.178 106.316 187.039 100.449C187.325 98.4933 188.121 96.2854 189.929 95.479C190.565 95.2272 191.251 95.1281 191.812 94.7744C192.372 94.4207 192.756 93.5327 192.301 93.0482C192.022 92.7169 191.54 92.6643 191.082 92.688C187.728 92.6502 184.372 93.2477 181.015 93.8451C174.506 95.0154 167.97 96.2365 161.461 97.4068C159.147 97.8302 156.578 98.3798 155.123 100.255C153.259 102.687 154.059 106.146 155.167 108.996C156.829 113.145 158.923 117.066 161.272 120.861C163.395 124.223 166.178 127.41 167.791 131.024C168.27 132.093 168.418 133.313 169.483 133.978C171.613 135.18 172.177 133.81 172.412 132.21Z" fill="#19170F"/>
</g>
<g clip-path="url(#clip17_229_131)">
<path d="M37.7974 50.2002C37.5633 49.5803 37.0751 49.0876 36.7191 48.5033C35.7068 46.7606 36.4477 44.585 37.4073 42.7956C40.21 37.529 45.0614 33.3844 50.722 31.4655C51.4638 31.1958 52.1956 30.9819 52.8102 30.4581C53.369 29.9242 53.6531 28.994 53.1852 28.3895C52.8191 27.8611 52.0922 27.7294 51.4772 27.6179C48.9714 27.1059 46.633 25.989 44.6755 24.3637C44.0196 23.8406 43.384 23.2056 43.0025 22.4435C42.5192 21.6052 42.412 20.604 42.2946 19.6588C41.9774 15.6745 43.0276 12.1113 44.8707 8.63409C45.6576 7.15984 46.0229 5.78237 43.7001 5.53454C42.4499 5.42338 41.5965 6.30813 40.5702 6.87279C37.095 8.84141 32.9635 9.65162 29.2441 11.0562C25.0826 12.6695 20.9923 14.5266 17.2225 16.846C14.6212 18.4534 11.8983 20.7316 11.9203 23.7962C11.952 26.1696 13.6149 28.1457 15.2624 29.888C19.7526 34.7443 24.2326 39.6565 28.7227 44.5128C30.9856 47.0019 33.3043 49.5012 36.0599 51.5022C36.4209 51.7408 36.8276 52.0456 37.2494 51.9488C37.7474 51.7503 38.0315 50.8201 37.7974 50.2002Z" fill="#19170F"/>
<path d="M74.4829 94.9621C74.3336 91.0464 74.8295 87.3583 76.7977 83.8796C77.2479 83.0577 77.8224 82.2096 78.6142 81.6534C79.2816 81.1233 80.1257 80.8157 80.9411 80.6181C83.4015 79.9702 85.9928 79.9439 88.4807 80.5367C89.0854 80.6951 89.7999 80.8822 90.3548 80.5576C91.0341 80.2068 91.1688 79.2436 90.8874 78.5238C90.606 77.804 89.9778 77.2871 89.419 76.7296C85.1654 72.5614 82.515 66.7572 82.1261 60.8404C81.9965 58.8681 82.3118 56.5425 83.9098 55.375C84.4791 54.9955 85.1295 54.7546 85.6032 54.2913C86.077 53.828 86.2667 52.8792 85.7197 52.501C85.3781 52.2353 84.8951 52.2851 84.4528 52.4042C81.1653 53.0704 78.0086 54.3583 74.852 55.6462C68.7324 58.1553 62.5984 60.7193 56.4788 63.2284C54.305 64.1275 51.9088 65.2034 50.8789 67.3419C49.5663 70.1113 51.0741 73.3255 52.7546 75.8801C55.2492 79.5877 58.1193 82.9824 61.212 86.2005C63.9919 89.043 67.3816 91.5753 69.7165 94.7712C70.4088 95.7161 70.8093 96.8782 71.9898 97.3048C74.3246 98.0337 74.589 96.5758 74.4829 94.9621Z" fill="#19170F"/>
</g>
<path d="M1566.74 255.083C1566.16 254.776 1565.46 254.733 1564.81 254.533C1562.9 253.906 1562 251.788 1561.53 249.814C1560.12 244.017 1560.98 237.695 1563.93 232.497C1564.31 231.802 1564.71 231.156 1564.82 230.356C1564.88 229.585 1564.48 228.702 1563.72 228.562C1563.1 228.411 1562.47 228.796 1561.94 229.122C1559.72 230.407 1557.24 231.128 1554.69 231.217C1553.86 231.263 1552.96 231.211 1552.17 230.896C1551.25 230.592 1550.5 229.915 1549.79 229.288C1546.9 226.524 1545.31 223.165 1544.37 219.343C1543.98 217.718 1543.34 216.447 1541.44 217.807C1540.43 218.556 1540.38 219.784 1539.99 220.888C1538.71 224.67 1536.16 228.023 1534.32 231.546C1532.28 235.519 1530.47 239.626 1529.19 243.866C1528.32 246.797 1527.8 250.309 1529.86 252.583C1531.46 254.334 1534.02 254.703 1536.41 254.908C1542.99 255.547 1549.6 256.234 1556.19 256.873C1559.53 257.226 1562.92 257.55 1566.31 257.211C1566.74 257.149 1567.25 257.106 1567.5 256.753C1567.74 256.274 1567.33 255.39 1566.74 255.083Z" fill="#19170F"/>
<path d="M1623.91 264.1C1621.2 261.276 1619.11 258.192 1618.27 254.286C1618.06 253.373 1617.92 252.357 1618.14 251.415C1618.29 250.575 1618.72 249.784 1619.19 249.094C1620.6 246.974 1622.52 245.23 1624.77 244.018C1625.32 243.734 1625.98 243.398 1626.18 242.787C1626.45 242.073 1625.91 241.264 1625.23 240.914C1624.54 240.564 1623.72 240.596 1622.94 240.551C1616.99 240.269 1611.15 237.698 1606.92 233.539C1605.51 232.153 1604.2 230.206 1604.62 228.272C1604.79 227.61 1605.11 226.997 1605.16 226.336C1605.21 225.675 1604.72 224.84 1604.06 224.922C1603.62 224.951 1603.3 225.309 1603.05 225.692C1601.03 228.377 1599.53 231.438 1598.03 234.5C1595.13 240.444 1592.26 246.439 1589.36 252.383C1588.33 254.5 1587.26 256.898 1587.91 259.18C1588.78 262.12 1592.04 263.517 1595 264.307C1599.32 265.416 1603.73 266.041 1608.18 266.386C1612.14 266.66 1616.36 266.295 1620.23 267.128C1621.37 267.373 1622.44 267.975 1623.61 267.508C1625.84 266.499 1625.07 265.235 1623.91 264.1Z" fill="#19170F"/>
<defs>
<clipPath id="clip0_229_131">
<rect width="84.777" height="88.1862" fill="white" transform="translate(306.408 77.9297) rotate(121.176)"/>
</clipPath>
<clipPath id="clip1_229_131">
<rect width="84.777" height="88.1862" fill="white" transform="translate(395.669 132.997) rotate(134.033)"/>
</clipPath>
<clipPath id="clip2_229_131">
<rect width="84.777" height="88.1862" fill="white" transform="translate(475.246 179.848) rotate(120.114)"/>
</clipPath>
<clipPath id="clip3_229_131">
<rect width="84.777" height="88.1862" fill="white" transform="translate(568.679 227.927) rotate(121.332)"/>
</clipPath>
<clipPath id="clip4_229_131">
<rect width="84.777" height="88.1862" fill="white" transform="translate(673.037 242.576) rotate(106.25)"/>
</clipPath>
<clipPath id="clip5_229_131">
<rect width="84.777" height="88.1862" fill="white" transform="translate(751.612 208.739) rotate(63.207)"/>
</clipPath>
<clipPath id="clip6_229_131">
<rect width="84.777" height="88.1862" fill="white" transform="translate(814 154.648) rotate(59.4822)"/>
</clipPath>
<clipPath id="clip7_229_131">
<rect width="84.777" height="88.1862" fill="white" transform="translate(884.445 86.4961) rotate(48.0132)"/>
</clipPath>
<clipPath id="clip8_229_131">
<rect width="84.777" height="88.1862" fill="white" transform="translate(974.334 31.462) rotate(64.3679)"/>
</clipPath>
<clipPath id="clip9_229_131">
<rect width="84.777" height="88.1862" fill="white" transform="translate(1108.25 46.5016) rotate(109.539)"/>
</clipPath>
<clipPath id="clip10_229_131">
<rect width="84.777" height="88.1862" fill="white" transform="translate(1218.18 118.601) rotate(121.764)"/>
</clipPath>
<clipPath id="clip11_229_131">
<rect width="84.777" height="88.1862" fill="white" transform="translate(1301.24 204.292) rotate(133.622)"/>
</clipPath>
<clipPath id="clip12_229_131">
<rect width="84.777" height="88.1862" fill="white" transform="translate(1380.14 250.698) rotate(126.151)"/>
</clipPath>
<clipPath id="clip13_229_131">
<rect width="84.777" height="88.1862" fill="white" transform="translate(1653.02 129.625) rotate(51.8679)"/>
</clipPath>
<clipPath id="clip14_229_131">
<rect width="84.777" height="88.1862" fill="white" transform="translate(1530.35 234.398) rotate(71.0892)"/>
</clipPath>
<clipPath id="clip15_229_131">
<rect width="84.777" height="88.1862" fill="white" transform="translate(1463.49 278.367) rotate(103.313)"/>
</clipPath>
<clipPath id="clip16_229_131">
<rect width="84.777" height="88.1862" fill="white" transform="translate(216.515 61.0852) rotate(112.377)"/>
</clipPath>
<clipPath id="clip17_229_131">
<rect width="84.777" height="88.1862" fill="white" transform="translate(102.695 16.1716) rotate(100.275)"/>
</clipPath>
</defs>
</svg>
