<svg width="186" height="80" viewBox="0 0 186 80" fill="none" xmlns="http://www.w3.org/2000/svg">
<path d="M49.4121 10.3541C45.6346 5.74806 39.8723 2.86926 32.2532 1.71774C24.5701 0.566225 15.6705 1.14198 5.49039 3.57297C3.56962 4.02078 2.09702 5.10832 1.07261 6.8356C0.0481949 8.56288 -0.271934 10.3541 0.240272 12.2733C0.688454 14.1925 1.77689 15.7279 3.44157 16.7515C5.10624 17.775 6.96299 18.0949 8.88376 17.5831C9.7161 17.3912 11.1247 17.0713 13.2375 16.7515L14.2619 33.3845C12.3412 33.5124 10.9326 33.6404 9.90818 33.7044C7.9874 33.7683 6.38676 34.472 4.97819 35.9434C3.56962 37.3508 2.86533 39.0781 2.92936 41.0613C2.99338 42.9805 3.7617 44.6438 5.17026 46.0512C6.57883 47.4586 8.30753 48.0983 10.2923 48.0344C11.1887 47.9704 12.0851 47.9064 12.8534 47.9064C19.32 47.5226 25.1463 46.563 30.3965 44.9636C35.6466 43.3643 40.1284 41.1252 43.7779 38.3744C47.4273 35.6236 50.0524 32.3609 51.7171 28.7144C53.1897 25.5798 53.7019 22.3811 53.3177 19.1185C52.8695 15.8558 51.589 12.977 49.4121 10.3541ZM38.5277 22.701C37.1832 25.6437 33.8538 28.1387 28.4757 30.2498L27.5153 15.5999C30.2684 15.8558 32.6374 16.3676 34.4301 17.0713C36.2868 17.775 37.5673 18.6067 38.2716 19.5023C39.0399 20.3979 39.168 21.4855 38.5277 22.701Z" fill="white"/>
<path d="M93.9742 9.97029C92.8857 9.26658 91.6692 8.81877 90.3247 8.7548C88.9801 8.69082 87.7636 8.88274 86.6112 9.52248C85.4587 10.0982 84.4983 10.9299 83.794 12.0814C83.0898 13.1689 82.7056 14.3844 82.6416 15.6639C82.3855 19.8861 81.5531 24.3003 80.2726 28.9064C78.9921 33.5124 77.3915 36.5831 75.4707 38.1825C74.7664 38.6943 73.9981 38.9502 73.1658 38.8222C72.4615 38.7582 72.0133 38.4384 71.6932 37.9906C70.5407 36.1993 70.1565 32.9367 70.6047 28.1387C70.9889 23.3407 71.7572 19.3104 72.8456 16.0477C73.4859 14.1285 73.2938 12.2733 72.3334 10.4181C71.373 8.62685 69.9645 7.41136 67.9797 6.8356C66.0589 6.25984 64.2021 6.38779 62.3454 7.34739C60.5527 8.30698 59.3362 9.71439 58.7599 11.6976C58.3758 12.8491 57.9276 14.1925 57.6075 15.5999C57.2233 17.0713 56.8392 19.1824 56.391 22.0612C55.9428 24.94 55.6867 27.6269 55.6227 30.1858C55.5586 32.7448 55.8147 35.4956 56.391 38.3744C56.9672 41.3172 57.9276 43.8121 59.2081 45.8593C61.9612 50.2094 65.9949 52.7684 71.245 53.4081C76.367 54.0478 80.8489 52.7684 84.8185 49.4418C86.8033 47.7785 88.532 45.6034 90.0686 42.9805C91.6052 40.2936 92.8217 37.7347 93.654 35.2397C94.4864 32.7448 95.1907 30.0579 95.7669 27.1791C96.3431 24.3003 96.6632 22.1252 96.8553 20.5898C97.0474 19.0545 97.1754 17.711 97.2395 16.4316C97.3035 15.1521 97.0474 13.8727 96.4712 12.7211C95.959 11.6336 95.0626 10.674 93.9742 9.97029Z" fill="white"/>
<path d="M133.094 31.9771C131.237 31.2734 129.38 31.2734 127.588 32.041C122.273 34.3441 118.496 34.2801 116.127 31.8491C114.91 30.5697 114.206 28.8424 113.95 26.6673C113.694 24.4282 114.014 22.3811 114.91 20.3979C116.895 16.1117 120.865 14.1285 126.755 14.4484C128.74 14.5763 130.469 14.0006 131.941 12.6572C133.478 11.3777 134.246 9.71438 134.374 7.73121C134.502 5.74805 133.926 4.02077 132.582 2.48541C131.237 1.01403 129.636 0.182376 127.652 0.0544291C121.697 -0.265437 116.511 0.822108 111.901 3.38104C107.355 5.93997 103.962 9.58644 101.657 14.3844C99.5443 19.1184 98.904 23.9804 99.6083 29.0983C100.377 34.2161 102.425 38.4384 105.755 41.8929C106.779 42.9805 107.932 43.8761 109.148 44.7717C110.365 45.6034 112.221 46.435 114.718 47.1387C117.151 47.9064 119.776 48.1623 122.466 47.9704C125.859 47.7785 129.444 46.8189 133.222 45.2835C135.079 44.5158 136.359 43.1724 137.063 41.3172C137.768 39.4619 137.768 37.6067 136.999 35.8155C136.231 33.9602 134.951 32.6808 133.094 31.9771Z" fill="white"/>
<path d="M181.497 37.2869L161.329 30.3777L177.848 18.9905C179.321 17.903 180.217 16.4956 180.537 14.7043C180.857 12.9131 180.537 11.2497 179.449 9.71439C178.424 8.17903 177.016 7.28341 175.159 6.96354C173.366 6.64368 171.701 7.02752 170.229 8.05109L151.469 21.0377L149.997 12.5932C149.677 10.8019 148.78 9.33055 147.308 8.30698C145.835 7.28341 144.17 6.89957 142.314 7.28341C140.521 7.60328 139.048 8.4989 138.024 9.97028C136.999 11.4417 136.615 13.105 136.935 14.9602L143.21 50.2094C143.466 52.0007 144.362 53.4081 145.835 54.4317C147.308 55.4552 148.908 55.9031 150.637 55.6472C150.765 55.6472 150.893 55.6472 150.893 55.5832C152.686 55.2633 154.158 54.3037 155.183 52.8323C156.271 51.361 156.591 49.6977 156.271 47.9064L155.311 42.3407L177.208 49.8896C178.168 50.2094 179.193 50.3374 180.281 50.2094C181.497 50.0175 182.586 49.5697 183.546 48.7381C184.507 47.9704 185.211 46.9468 185.595 45.7313C186.235 44.004 186.107 42.2768 185.275 40.6135C184.443 38.9502 183.226 37.8626 181.497 37.2869Z" fill="white"/>
<path d="M100.747 59.4939C102.217 59.9082 103.471 60.6896 104.507 61.8383C105.562 62.9869 106.288 64.3615 106.684 65.9621C107.079 67.5438 107.089 69.1632 106.712 70.8203C106.41 72.1384 105.873 73.3341 105.101 74.4074C104.347 75.4808 103.423 76.3375 102.33 76.9778C101.087 77.6933 99.7673 78.0511 98.3727 78.0511C97.6566 78.0511 96.9499 77.9569 96.2526 77.7686C94.8015 77.3732 93.5482 76.6011 92.4929 75.4525C91.4375 74.285 90.7025 72.9104 90.2879 71.3287C89.8922 69.7281 89.8922 68.0993 90.2879 66.4423C90.5895 65.143 91.1172 63.9567 91.871 62.8834C92.6248 61.81 93.5294 60.9627 94.5848 60.3413C96.5447 59.1738 98.5895 58.8819 100.719 59.4657L100.747 59.4939ZM101.567 69.634C101.812 68.523 101.708 67.4685 101.256 66.4705C100.804 65.4537 100.144 64.8229 99.2773 64.5781C99.07 64.5216 98.8627 64.4933 98.6554 64.4933C98.1843 64.4933 97.732 64.6251 97.2985 64.8888C96.3563 65.4537 95.7344 66.3764 95.4328 67.6568C95.169 68.7678 95.2538 69.8223 95.6872 70.8203C96.1395 71.8183 96.8086 72.4303 97.6943 72.6562C98.3727 72.8634 99.0323 72.7786 99.6731 72.402C100.634 71.8371 101.266 70.9144 101.567 69.634Z" fill="white"/>
<path d="M121.654 55.935C122.125 55.935 122.559 56.048 122.955 56.274C123.369 56.4999 123.69 56.8106 123.916 57.206C124.161 57.6015 124.293 58.0346 124.312 58.5053L124.707 74.5204C124.707 74.8782 124.641 75.2265 124.509 75.5655C124.378 75.9044 124.189 76.2057 123.944 76.4693C123.699 76.7141 123.407 76.9024 123.068 77.0342C122.559 77.2414 122.031 77.2885 121.485 77.1755C120.957 77.0625 120.505 76.8083 120.128 76.4128L112.835 68.6736L113.117 75.7915C113.136 76.1492 113.08 76.4976 112.948 76.8365C112.816 77.1566 112.637 77.4391 112.411 77.6839C112.184 77.9287 111.911 78.1264 111.591 78.277C111.27 78.4277 110.931 78.5124 110.573 78.5312C110.554 78.5312 110.517 78.5312 110.46 78.5312C109.763 78.5312 109.15 78.2865 108.623 77.7969C108.114 77.3073 107.85 76.7047 107.831 75.9892L107.237 61.81C107.219 61.264 107.35 60.7555 107.633 60.2848C107.935 59.814 108.34 59.4751 108.849 59.268C109.358 59.0608 109.885 59.0137 110.432 59.1267C110.978 59.2397 111.44 59.4939 111.817 59.8894L119.223 67.7415L118.997 58.6466C118.978 57.9122 119.223 57.2814 119.732 56.7541C120.241 56.2269 120.863 55.9538 121.598 55.935H121.654Z" fill="white"/>
<path d="M141.086 66.7812C141.444 66.9883 141.717 67.1484 141.906 67.2614C142.094 67.3744 142.367 67.5438 142.725 67.7698C143.102 67.9957 143.394 68.2029 143.602 68.3912C143.828 68.5607 144.101 68.7772 144.422 69.0408C144.761 69.3044 145.025 69.5681 145.213 69.8317C145.42 70.0765 145.637 70.3684 145.863 70.7073C146.108 71.0274 146.287 71.3569 146.4 71.6959C146.513 72.0348 146.608 72.402 146.683 72.7974C146.777 73.1929 146.815 73.6166 146.796 74.0685C146.796 74.5204 146.749 74.9912 146.655 75.4808C146.353 76.8365 145.505 77.9381 144.111 78.7855C142.81 79.5952 141.227 80 139.361 80C138.005 80 136.535 79.7835 134.952 79.3504C134.254 79.1621 133.717 78.7478 133.34 78.1076C132.982 77.4673 132.897 76.7989 133.086 76.1021C133.293 75.3866 133.708 74.8499 134.33 74.4922C134.97 74.1344 135.649 74.0497 136.365 74.238C137.345 74.5016 138.221 74.6522 138.994 74.6899C139.785 74.7087 140.36 74.6711 140.718 74.5769C141.076 74.4639 141.34 74.3321 141.51 74.1815C141.529 73.899 141.463 73.6448 141.312 73.4188C141.18 73.1929 140.897 72.9293 140.464 72.628C140.03 72.3079 139.361 71.8936 138.457 71.3852C137.835 71.0274 137.354 70.745 137.015 70.5378C136.676 70.3307 136.214 70.02 135.63 69.6057C135.065 69.1726 134.612 68.7678 134.273 68.3912C133.934 68.0146 133.604 67.5438 133.284 66.9789C132.963 66.3952 132.728 65.7926 132.577 65.1712C132.37 64.1167 132.445 63.0811 132.803 62.0642C133.161 61.0474 133.745 60.1718 134.556 59.4374C134.933 59.1173 135.347 58.8349 135.8 58.5901C136.271 58.3453 136.855 58.1287 137.552 57.9404C138.268 57.7333 139.116 57.6674 140.096 57.7427C141.095 57.7992 142.141 58.0157 143.234 58.3923C143.932 58.6371 144.44 59.0891 144.761 59.7481C145.1 60.3883 145.147 61.0568 144.902 61.7535C144.676 62.4503 144.233 62.9587 143.573 63.2788C142.914 63.5989 142.235 63.646 141.538 63.42C139.88 62.8551 138.721 62.8551 138.061 63.42C137.816 63.646 137.712 63.8531 137.75 64.0414C137.826 64.3427 138.042 64.6722 138.4 65.03C138.777 65.3689 139.135 65.6514 139.475 65.8774C139.833 66.0845 140.37 66.3858 141.086 66.7812Z" fill="white"/>
<path d="M157.478 59.4939C158.948 59.9082 160.201 60.6896 161.237 61.8383C162.293 62.9869 163.018 64.3615 163.414 65.9621C163.81 67.5438 163.819 69.1632 163.442 70.8203C163.141 72.1384 162.604 73.3341 161.831 74.4074C161.077 75.4808 160.154 76.3375 159.061 76.9778C157.817 77.6933 156.498 78.0511 155.103 78.0511C154.387 78.0511 153.68 77.9569 152.983 77.7686C151.532 77.3732 150.279 76.6011 149.223 75.4525C148.168 74.285 147.433 72.9104 147.018 71.3287C146.623 69.7281 146.623 68.0993 147.018 66.4423C147.32 65.143 147.847 63.9567 148.601 62.8834C149.355 61.81 150.26 60.9627 151.315 60.3413C153.275 59.1738 155.32 58.8819 157.449 59.4657L157.478 59.4939ZM158.297 69.634C158.542 68.523 158.439 67.4685 157.986 66.4705C157.534 65.4537 156.875 64.8229 156.008 64.5781C155.8 64.5216 155.593 64.4933 155.386 64.4933C154.915 64.4933 154.462 64.6251 154.029 64.8888C153.087 65.4537 152.465 66.3764 152.163 67.6568C151.899 68.7678 151.984 69.8223 152.418 70.8203C152.87 71.8183 153.539 72.4303 154.425 72.6562C155.103 72.8634 155.763 72.7786 156.403 72.402C157.365 71.8371 157.996 70.9144 158.297 69.634Z" fill="white"/>
<path d="M175.332 72.0348C176.067 72.016 176.698 72.2702 177.226 72.7974C177.753 73.3059 178.017 73.9273 178.017 74.6616C178.017 75.3772 177.763 75.9986 177.254 76.5258C176.745 77.0531 176.123 77.3167 175.388 77.3167L166.908 77.4297H166.879C166.163 77.4297 165.541 77.1755 165.014 76.6671C164.486 76.1398 164.222 75.509 164.222 74.7746L164.137 61.0474C164.137 60.313 164.392 59.6916 164.901 59.1832C165.409 58.656 166.031 58.3923 166.766 58.3923C167.501 58.4112 168.123 58.6748 168.632 59.1832C169.16 59.6916 169.424 60.3036 169.424 61.0192L169.508 72.0913L175.332 72.0348Z" fill="white"/>
</svg>
