<svg width="422" height="192" viewBox="0 0 422 192" fill="none" xmlns="http://www.w3.org/2000/svg">
<path d="M112.317 23.9341C103.765 13.4974 90.7191 6.97444 73.4695 4.36525C56.075 1.75607 35.9263 3.06066 12.8785 8.56894C8.52986 9.58362 5.1959 12.0479 2.87663 15.9616C0.557355 19.8754 -0.167418 23.9341 0.992219 28.2828C2.0069 32.6314 4.47113 36.1103 8.23995 38.4296C12.0088 40.7489 16.2125 41.4736 20.5611 40.314C22.4455 39.8791 25.6345 39.1544 30.418 38.4296L32.7373 76.1178C28.3886 76.4077 25.1996 76.6976 22.8804 76.8426C18.5317 76.9875 14.9079 78.582 11.7189 81.916C8.52986 85.105 6.93536 89.0188 7.08031 93.5123C7.22527 97.861 8.96472 101.63 12.1537 104.819C15.3427 108.008 19.2565 109.457 23.7501 109.312C25.7795 109.167 27.8088 109.022 29.5483 109.022C44.1887 108.153 57.3796 105.978 69.2658 102.355C81.1521 98.7307 91.299 93.6573 99.5614 87.4242C107.824 81.1912 113.767 73.7985 117.536 65.5361C120.87 58.4333 122.029 51.1856 121.16 43.7929C120.145 36.4002 117.246 29.8773 112.317 23.9341ZM87.6751 51.9104C84.631 58.5783 77.0934 64.2315 64.9172 69.015L62.7429 35.8204C68.9759 36.4002 74.3393 37.5599 78.398 39.1544C82.6017 40.7489 85.5008 42.6333 87.0953 44.6626C88.8347 46.692 89.1246 49.1562 87.6751 51.9104Z" fill="#0B0900"/>
<path d="M213.206 23.0644C210.742 21.4699 207.988 20.4552 204.944 20.3103C201.9 20.1653 199.145 20.6002 196.536 22.0497C193.927 23.3543 191.753 25.2387 190.158 27.8479C188.564 30.3121 187.694 33.0663 187.549 35.9654C186.969 45.5324 185.085 55.5342 182.186 65.971C179.287 76.4077 175.663 83.3655 171.314 86.9894C169.72 88.149 167.98 88.7288 166.096 88.4389C164.501 88.294 163.487 87.5692 162.762 86.5545C160.153 82.4958 159.283 75.1031 160.298 64.2315C161.167 53.3599 162.907 44.2278 165.371 36.8351C166.821 32.4865 166.386 28.2828 164.211 24.0791C162.037 20.0204 158.848 17.2662 154.354 15.9616C150.006 14.657 145.802 14.9469 141.598 17.1213C137.54 19.2956 134.786 22.4846 133.481 26.9782C132.611 29.5874 131.597 32.6314 130.872 35.8204C130.002 39.1544 129.132 43.9379 128.118 50.4608C127.103 56.9838 126.523 63.0719 126.378 68.8701C126.233 74.6682 126.813 80.9013 128.118 87.4242C129.422 94.0922 131.597 99.7454 134.496 104.384C140.729 114.241 149.861 120.039 161.747 121.489C173.343 122.938 183.49 120.039 192.477 112.501C196.971 108.733 200.885 103.804 204.364 97.861C207.843 91.7729 210.597 85.9747 212.481 80.3215C214.366 74.6682 215.96 68.5801 217.265 62.0572C218.569 55.5342 219.294 50.6058 219.729 47.1269C220.164 43.648 220.454 40.6039 220.599 37.7048C220.744 34.8057 220.164 31.9066 218.859 29.2974C217.7 26.8332 215.67 24.6589 213.206 23.0644Z" fill="#0B0900"/>
<path d="M301.772 72.9288C297.569 71.3343 293.365 71.3343 289.306 73.0737C277.275 78.2921 268.723 78.1471 263.359 72.6389C260.605 69.7398 259.011 65.826 258.431 60.8975C257.851 55.8241 258.576 51.1856 260.605 46.692C265.099 36.98 274.086 32.4864 287.422 33.2112C291.915 33.5011 295.829 32.1965 299.163 29.1525C302.642 26.2534 304.382 22.4846 304.671 17.991C304.961 13.4974 303.657 9.5836 300.613 6.10469C297.569 2.77073 293.945 0.886322 289.451 0.596412C275.97 -0.128361 264.229 2.33587 253.792 8.13405C243.501 13.9322 235.818 22.1947 230.6 33.0662C225.816 43.7929 224.367 54.8094 225.961 66.4058C227.701 78.0022 232.339 87.5692 239.877 95.3967C242.196 97.861 244.805 99.8903 247.559 101.92C250.314 103.804 254.517 105.689 260.17 107.283C265.679 109.022 271.622 109.602 277.71 109.167C285.393 108.733 293.51 106.558 302.062 103.079C306.266 101.34 309.165 98.2958 310.76 94.0921C312.354 89.8885 312.354 85.6848 310.615 81.626C308.875 77.4224 305.976 74.5233 301.772 72.9288Z" fill="#0B0900"/>
<path d="M411.359 84.96L365.698 69.3049L403.096 43.503C406.43 41.0388 408.46 37.8498 409.185 33.791C409.909 29.7323 409.185 25.9635 406.72 22.4846C404.401 19.0057 401.212 16.9763 397.008 16.2515C392.95 15.5268 389.181 16.3965 385.847 18.7158L343.375 48.1415L340.041 29.0075C339.316 24.9488 337.287 21.6148 333.953 19.2956C330.619 16.9763 326.85 16.1066 322.647 16.9763C318.588 17.7011 315.254 19.7304 312.935 23.0644C310.615 26.3983 309.746 30.1672 310.47 34.3709L324.676 114.241C325.256 118.3 327.285 121.489 330.619 123.808C333.953 126.127 337.577 127.142 341.491 126.562C341.781 126.562 342.071 126.562 342.071 126.417C346.129 125.692 349.463 123.518 351.783 120.184C354.247 116.85 354.972 113.081 354.247 109.022L352.072 96.4114L401.647 113.516C403.821 114.241 406.141 114.531 408.605 114.241C411.359 113.806 413.823 112.791 415.997 110.907C418.172 109.167 419.766 106.848 420.636 104.094C422.086 100.18 421.796 96.2665 419.911 92.4977C418.027 88.7288 415.273 86.2646 411.359 84.96Z" fill="#0B0900"/>
<path d="M228.54 135.278C231.868 136.217 234.706 137.988 237.052 140.59C239.442 143.193 241.084 146.308 241.98 149.934C242.876 153.518 242.898 157.188 242.044 160.942C241.362 163.929 240.146 166.638 238.396 169.07C236.69 171.502 234.599 173.444 232.124 174.894C229.308 176.516 226.322 177.326 223.164 177.326C221.543 177.326 219.943 177.113 218.364 176.686C215.079 175.79 212.242 174.041 209.852 171.438C207.463 168.793 205.799 165.678 204.86 162.094C203.964 158.468 203.964 154.777 204.86 151.022C205.543 148.078 206.738 145.39 208.444 142.958C210.151 140.526 212.199 138.606 214.588 137.198C219.026 134.553 223.655 133.892 228.476 135.214L228.54 135.278ZM230.396 158.254C230.951 155.737 230.716 153.348 229.692 151.086C228.668 148.782 227.175 147.353 225.212 146.798C224.743 146.67 224.274 146.606 223.804 146.606C222.738 146.606 221.714 146.905 220.732 147.502C218.599 148.782 217.191 150.873 216.508 153.774C215.911 156.292 216.103 158.681 217.084 160.942C218.108 163.204 219.623 164.59 221.628 165.102C223.164 165.572 224.658 165.38 226.108 164.526C228.284 163.246 229.714 161.156 230.396 158.254ZM275.874 127.214C276.94 127.214 277.922 127.47 278.818 127.982C279.756 128.494 280.482 129.198 280.994 130.094C281.548 130.99 281.847 131.972 281.89 133.038L282.786 169.326C282.786 170.137 282.636 170.926 282.338 171.694C282.039 172.462 281.612 173.145 281.058 173.742C280.503 174.297 279.842 174.724 279.074 175.022C277.922 175.492 276.727 175.598 275.49 175.342C274.295 175.086 273.271 174.51 272.418 173.614L255.906 156.078L256.546 172.206C256.588 173.017 256.46 173.806 256.162 174.574C255.863 175.3 255.458 175.94 254.946 176.494C254.434 177.049 253.815 177.497 253.09 177.838C252.364 178.18 251.596 178.372 250.786 178.414C250.743 178.414 250.658 178.414 250.53 178.414C248.951 178.414 247.564 177.86 246.37 176.75C245.218 175.641 244.62 174.276 244.578 172.654L243.234 140.526C243.191 139.289 243.49 138.137 244.13 137.07C244.812 136.004 245.73 135.236 246.882 134.766C248.034 134.297 249.228 134.19 250.466 134.446C251.703 134.702 252.748 135.278 253.602 136.174L270.37 153.966L269.858 133.358C269.815 131.694 270.37 130.265 271.522 129.07C272.674 127.876 274.082 127.257 275.746 127.214H275.874ZM319.867 151.79C320.677 152.26 321.296 152.622 321.723 152.878C322.149 153.134 322.768 153.518 323.579 154.03C324.432 154.542 325.093 155.012 325.563 155.438C326.075 155.822 326.693 156.313 327.419 156.91C328.187 157.508 328.784 158.105 329.211 158.702C329.68 159.257 330.171 159.918 330.683 160.686C331.237 161.412 331.643 162.158 331.899 162.926C332.155 163.694 332.368 164.526 332.539 165.422C332.752 166.318 332.837 167.278 332.795 168.302C332.795 169.326 332.688 170.393 332.475 171.502C331.792 174.574 329.872 177.07 326.715 178.99C323.771 180.825 320.187 181.742 315.963 181.742C312.891 181.742 309.563 181.252 305.979 180.27C304.4 179.844 303.184 178.905 302.331 177.454C301.52 176.004 301.328 174.489 301.755 172.91C302.224 171.289 303.163 170.073 304.571 169.262C306.021 168.452 307.557 168.26 309.179 168.686C311.397 169.284 313.381 169.625 315.131 169.71C316.923 169.753 318.224 169.668 319.035 169.454C319.845 169.198 320.443 168.9 320.827 168.558C320.869 167.918 320.72 167.342 320.379 166.83C320.08 166.318 319.44 165.721 318.459 165.038C317.477 164.313 315.963 163.374 313.915 162.222C312.507 161.412 311.419 160.772 310.651 160.302C309.883 159.833 308.837 159.129 307.515 158.19C306.235 157.209 305.211 156.292 304.443 155.438C303.675 154.585 302.928 153.518 302.203 152.238C301.477 150.916 300.944 149.55 300.603 148.142C300.133 145.753 300.304 143.406 301.115 141.102C301.925 138.798 303.248 136.814 305.083 135.15C305.936 134.425 306.875 133.785 307.899 133.23C308.965 132.676 310.288 132.185 311.867 131.758C313.488 131.289 315.408 131.14 317.627 131.31C319.888 131.438 322.256 131.929 324.731 132.782C326.309 133.337 327.461 134.361 328.187 135.854C328.955 137.305 329.061 138.82 328.507 140.398C327.995 141.977 326.992 143.129 325.499 143.854C324.005 144.58 322.469 144.686 320.891 144.174C317.136 142.894 314.512 142.894 313.019 144.174C312.464 144.686 312.229 145.156 312.315 145.582C312.485 146.265 312.976 147.012 313.787 147.822C314.64 148.59 315.451 149.23 316.219 149.742C317.029 150.212 318.245 150.894 319.867 151.79ZM356.978 135.278C360.306 136.217 363.143 137.988 365.49 140.59C367.879 143.193 369.522 146.308 370.418 149.934C371.314 153.518 371.335 157.188 370.482 160.942C369.799 163.929 368.583 166.638 366.834 169.07C365.127 171.502 363.036 173.444 360.562 174.894C357.746 176.516 354.759 177.326 351.602 177.326C349.98 177.326 348.38 177.113 346.802 176.686C343.516 175.79 340.679 174.041 338.29 171.438C335.9 168.793 334.236 165.678 333.298 162.094C332.402 158.468 332.402 154.777 333.298 151.022C333.98 148.078 335.175 145.39 336.882 142.958C338.588 140.526 340.636 138.606 343.026 137.198C347.463 134.553 352.092 133.892 356.914 135.214L356.978 135.278ZM358.834 158.254C359.388 155.737 359.154 153.348 358.13 151.086C357.106 148.782 355.612 147.353 353.65 146.798C353.18 146.67 352.711 146.606 352.242 146.606C351.175 146.606 350.151 146.905 349.17 147.502C347.036 148.782 345.628 150.873 344.946 153.774C344.348 156.292 344.54 158.681 345.522 160.942C346.546 163.204 348.06 164.59 350.066 165.102C351.602 165.572 353.095 165.38 354.546 164.526C356.722 163.246 358.151 161.156 358.834 158.254ZM397.399 163.694C399.063 163.652 400.493 164.228 401.687 165.422C402.882 166.574 403.479 167.982 403.479 169.646C403.479 171.268 402.903 172.676 401.751 173.87C400.599 175.065 399.191 175.662 397.527 175.662L378.327 175.918H378.263C376.642 175.918 375.234 175.342 374.039 174.19C372.845 172.996 372.247 171.566 372.247 169.902L372.055 138.798C372.055 137.134 372.631 135.726 373.783 134.574C374.935 133.38 376.343 132.782 378.007 132.782C379.671 132.825 381.079 133.422 382.231 134.574C383.426 135.726 384.023 137.113 384.023 138.734L384.215 163.822L397.399 163.694Z" fill="black"/>
</svg>
