<svg width="79" height="80" viewBox="0 0 79 80" fill="none" xmlns="http://www.w3.org/2000/svg">
<rect x="9.54688" y="0.52002" width="70.0274" height="70.0274" rx="16" transform="rotate(7.57323 9.54688 0.52002)" fill="#0B0900"/>
<path fill-rule="evenodd" clip-rule="evenodd" d="M53.4974 29.5313C53.909 29.4191 54.3433 29.4192 54.7549 29.5317C55.1665 29.6442 55.5404 29.865 55.8378 30.1711C56.1351 30.4772 56.3449 30.8574 56.4455 31.2721C56.546 31.6868 56.5336 32.1208 56.4094 32.5291L49.9457 53.7571C49.3203 55.8045 46.8636 56.6997 45.0823 55.4016C43.5922 54.3156 41.3855 52.6543 39.4264 50.9665C38.4469 50.1218 35.4596 47.4368 36.0761 45.8907C36.6051 44.569 42.8102 40.1632 46.3718 37.5268C47.7699 36.4909 47.2972 35.7232 45.6879 36.6331C41.6916 38.8922 35.3062 42.2867 33.2223 43.2041C31.384 44.013 30.4738 44.0718 29.4371 43.7541C27.5457 43.1751 25.8182 42.4381 24.4349 41.6361C22.5656 40.5526 23.0235 37.8456 25.0093 37.3036L53.4974 29.5313Z" fill="white"/>
</svg>
